<?xml version="1.0" standalone="no"?>
<!DOCTYPE svg PUBLIC "-//W3C//DTD SVG 20010904//EN"
 "http://www.w3.org/TR/2001/REC-SVG-20010904/DTD/svg10.dtd">
<svg version="1.0" xmlns="http://www.w3.org/2000/svg"
 width="260.000000pt" height="260.000000pt" viewBox="0 0 260.000000 260.000000"
 preserveAspectRatio="xMidYMid meet">
<metadata>
Created by potrace 1.11, written by Peter Selinger 2001-2013
</metadata>
<g transform="translate(0.000000,260.000000) scale(0.100000,-0.100000)"
fill="#000000" stroke="none">
<path d="M391 2078 c-36 -17 -48 -32 -69 -77 -24 -53 -26 -68 -32 -271 -8
-284 -10 -288 -140 -350 -10 -5 -15 -22 -15 -50 0 -45 1 -46 69 -76 29 -13 44
-29 59 -63 19 -41 22 -73 27 -286 6 -222 8 -244 30 -288 31 -65 67 -88 145
-95 35 -2 75 -2 89 2 23 6 26 11 26 49 0 53 -13 67 -60 67 -24 0 -43 7 -55 20
-23 25 -34 126 -35 321 0 186 -14 245 -69 300 -20 20 -43 39 -51 42 -13 6 -13
8 0 14 8 3 31 22 51 42 54 53 69 115 69 280 1 176 13 276 35 301 12 13 31 20
55 20 22 0 43 7 51 16 17 20 15 84 -3 95 -27 17 -131 10 -177 -13z"/>
<path d="M2033 2094 c-18 -8 -27 -68 -14 -93 9 -16 21 -21 55 -21 47 0 70 -17
81 -60 3 -14 9 -124 13 -245 7 -195 10 -225 28 -255 18 -32 66 -72 97 -83 6
-2 -6 -19 -27 -38 -22 -19 -50 -59 -64 -89 -22 -50 -25 -74 -33 -270 -5 -118
-11 -226 -15 -240 -9 -40 -34 -60 -73 -60 -20 0 -41 -4 -48 -8 -18 -11 -25
-55 -14 -85 10 -26 13 -27 83 -27 168 0 208 73 208 385 0 176 6 227 36 292 16
36 58 73 83 73 27 0 41 21 41 60 0 38 -14 60 -38 60 -36 0 -82 34 -102 74 -18
38 -20 61 -20 234 0 201 -10 277 -43 327 -36 55 -63 68 -146 72 -42 1 -81 0
-88 -3z"/>
<path d="M681 1686 c-7 -8 -11 -30 -9 -48 l3 -33 117 -3 118 -3 2 -347 3 -347
53 -3 52 -3 0 350 0 350 118 3 117 3 3 39 c2 24 -2 42 -10 47 -7 5 -135 9
-284 9 -224 0 -274 -3 -283 -14z"/>
<path d="M1393 1685 l-23 -16 0 -368 c0 -286 3 -371 13 -385 12 -16 29 -17
173 -14 156 3 162 4 219 33 97 49 143 151 115 253 -13 51 -69 117 -107 127
l-26 6 31 32 c81 84 82 209 1 282 -51 46 -91 56 -244 62 -110 4 -133 2 -152
-12z m249 -85 c64 -18 81 -40 86 -106 4 -54 1 -63 -23 -92 -31 -37 -77 -52
-162 -52 l-63 0 0 123 c0 68 3 127 7 130 10 11 114 8 155 -3z m13 -340 c77
-13 115 -47 122 -114 7 -59 -10 -100 -54 -127 -29 -18 -51 -22 -136 -23 l-102
-1 -3 138 -3 137 58 0 c32 0 85 -5 118 -10z"/>
</g>
</svg>
